<?xml version="1.0" standalone="no"?>
<!DOCTYPE svg PUBLIC "-//W3C//DTD SVG 20010904//EN"
 "http://www.w3.org/TR/2001/REC-SVG-20010904/DTD/svg10.dtd">
<svg version="1.0" xmlns="http://www.w3.org/2000/svg"
 width="111.000000pt" height="101.000000pt" viewBox="0 0 111.000000 101.000000"
 preserveAspectRatio="xMidYMid meet">

<g transform="translate(0.000000,101.000000) scale(0.100000,-0.100000)"
fill="#000000" stroke="none">
<path d="M0 505 l0 -505 555 0 555 0 0 505 0 505 -555 0 -555 0 0 -505z m965
461 c64 -27 65 -31 65 -466 0 -335 -2 -395 -16 -421 -29 -57 -45 -59 -466 -59
-412 0 -413 0 -452 53 -20 28 -21 38 -21 427 0 389 1 399 21 427 39 53 40 53
452 53 308 0 389 -3 417 -14z"/>
<path d="M290 500 l0 -160 40 0 40 0 0 65 0 65 43 0 c50 0 57 5 78 50 l16 35
22 -75 c42 -144 50 -148 88 -52 l25 62 44 0 44 0 0 -75 0 -75 40 0 40 0 0 160
0 160 -40 0 -40 0 0 -70 0 -70 -58 0 -58 0 -16 -42 -15 -43 -29 94 c-16 52
-35 96 -42 99 -8 2 -23 -20 -39 -57 -26 -59 -27 -61 -65 -61 l-38 0 0 75 0 75
-40 0 -40 0 0 -160z"/>
<path d="M190 500 l0 -100 40 0 40 0 0 100 0 100 -40 0 -40 0 0 -100z"/>
<path d="M830 500 l0 -100 40 0 40 0 0 100 0 100 -40 0 -40 0 0 -100z"/>
</g>
</svg>
